<?xml version="1.0" standalone="no"?>
<!DOCTYPE svg PUBLIC "-//W3C//DTD SVG 20010904//EN"
 "http://www.w3.org/TR/2001/REC-SVG-20010904/DTD/svg10.dtd">
<svg version="1.0" xmlns="http://www.w3.org/2000/svg"
 width="817.000000pt" height="817.000000pt" viewBox="0 0 817.000000 817.000000"
 preserveAspectRatio="xMidYMid meet">
<metadata>
Created by potrace 1.11, written by Peter Selinger 2001-2013
</metadata>
<g transform="translate(0.000000,817.000000) scale(0.100000,-0.100000)"
fill="#000000" stroke="none">
<path d="M5485 8032 c0 -164 -6 -202 -47 -345 -15 -55 -22 -67 -36 -63 -197
62 -381 108 -557 140 -136 24 -164 29 -270 41 -27 4 -61 8 -75 10 -157 23
-667 23 -865 0 -16 -2 -55 -6 -85 -10 -342 -38 -741 -142 -1090 -283 -102 -41
-414 -192 -495 -240 -140 -81 -360 -227 -403 -266 l-24 -21 -34 39 c-104 120
-259 388 -325 561 l-32 86 -39 -38 c-22 -21 -60 -66 -85 -100 -43 -61 -123
-211 -123 -232 0 -6 -4 -19 -10 -29 -13 -23 -50 -163 -56 -209 -11 -93 -16
-153 -16 -213 -1 -72 10 -229 17 -240 3 -4 7 -25 10 -46 3 -22 15 -71 27 -111
l21 -72 -45 -53 c-232 -275 -456 -654 -603 -1018 -25 -63 -47 -119 -49 -125
-1 -5 -15 -48 -30 -95 -15 -47 -29 -92 -31 -100 -2 -8 -9 -31 -15 -50 -6 -19
-14 -46 -17 -60 -10 -50 -11 -55 -13 -55 -4 0 -56 -258 -64 -315 -4 -25 -11
-72 -16 -105 -10 -67 -7 -956 3 -995 4 -14 10 -45 13 -70 5 -38 16 -94 59
-300 2 -8 4 -15 5 -15 2 0 7 -22 15 -60 3 -16 9 -39 12 -50 4 -11 7 -22 8 -25
4 -17 58 -187 67 -208 6 -15 12 -31 13 -37 9 -37 98 -245 160 -372 72 -147
201 -375 217 -381 4 -2 8 -8 8 -13 0 -8 107 -168 137 -204 32 -39 53 -69 53
-75 0 -5 -25 -25 -56 -45 -187 -124 -344 -301 -414 -465 -36 -87 -41 -110 -41
-192 0 -62 5 -87 25 -125 29 -58 85 -105 152 -128 55 -19 194 -27 252 -15 20
5 50 11 65 14 154 27 398 164 554 309 23 21 45 38 50 38 4 -1 37 -25 73 -55
36 -29 115 -89 177 -133 l112 -80 -36 -34 c-82 -79 -161 -200 -198 -307 -23
-67 -32 -196 -14 -208 5 -3 9 -13 9 -23 0 -9 16 -36 35 -58 152 -177 548 -97
870 177 33 28 61 55 63 59 2 5 29 -1 60 -14 136 -55 456 -156 542 -171 14 -3
33 -7 42 -10 10 -3 28 -7 40 -10 13 -2 34 -6 48 -9 305 -62 561 -88 870 -89
139 0 368 10 420 18 14 3 54 7 90 11 104 11 123 13 155 19 34 7 67 13 145 26
30 6 66 13 80 16 14 3 36 7 50 10 14 3 33 7 42 10 9 3 25 6 35 8 10 2 63 16
118 31 492 133 994 378 1398 682 56 42 104 79 107 83 3 3 18 16 34 28 103 79
389 357 482 468 110 130 154 187 226 289 43 60 82 115 86 120 17 22 121 194
157 260 76 141 85 158 85 168 0 6 6 18 13 26 8 9 21 34 29 56 9 22 27 65 41
95 94 207 205 575 242 800 3 19 8 46 10 60 3 14 7 41 10 60 2 19 7 55 10 80 4
25 8 59 10 75 2 17 7 80 11 140 3 65 11 113 18 117 7 5 8 8 0 8 -6 0 -11 18
-11 40 0 22 5 40 11 40 7 0 7 3 1 8 -15 11 -17 32 -2 32 9 0 8 3 -2 9 -9 6
-10 10 -2 16 9 5 9 10 0 21 -9 11 -8 14 2 14 10 0 10 3 1 12 -15 15 -16 31 0
22 8 -5 8 -3 2 7 -5 8 -10 34 -11 59 -3 88 -19 280 -28 340 -50 333 -138 672
-224 873 -19 45 -20 48 -3 65 33 33 104 147 141 227 50 104 83 205 96 292 2
13 6 40 9 60 4 21 7 55 8 75 1 22 5 35 11 31 6 -4 7 -1 1 8 -12 19 -12 33 1
41 6 5 5 8 -4 8 -11 0 -11 3 0 17 8 9 9 14 2 10 -8 -5 -11 5 -11 35 0 59 -10
130 -28 208 -20 82 -19 81 -28 105 -38 100 -50 131 -56 140 -4 6 -22 37 -39
70 -80 148 -211 282 -373 383 -81 51 -103 54 -93 15 48 -190 35 -445 -35 -653
-22 -67 -87 -207 -99 -214 -14 -9 -183 205 -177 223 50 152 70 266 70 406 0
428 -206 797 -554 993 -77 43 -300 115 -300 97 0 -2 12 -32 26 -67 43 -105 49
-122 73 -223 33 -135 33 -362 1 -500 -7 -27 -13 -56 -14 -63 -1 -7 -6 -13 -10
-13 -4 -1 -62 34 -129 78 -67 44 -137 88 -155 99 -31 18 -32 20 -25 64 15 86
9 329 -10 419 -32 149 -101 318 -169 413 l-19 28 -262 0 -262 0 0 -138z"/>
</g>
</svg>
